ply
format ascii 1.0
comment VCGLIB generated
element vertex 589
property float x
property float y
property float z
element face 0
property list uchar int vertex_indices
end_header
-0.540284 0.652213 -1 
0.238139 0.728341 -1 
0.436429 0.255362 -1 
0.37716 -0.695985 -1 
-0.458541 0.732296 -1 
-0.185419 -0.2518 -1 
0.371325 0.220459 -1 
-0.497512 -0.578417 -1 
-0.167215 -0.171098 -1 
0.113346 0.427614 -1 
0.481592 -0.430165 -1 
-0.688762 -0.730629 -1 
0.0511081 -0.675603 -1 
0.344637 0.73067 -1 
-0.502785 0.708697 -1 
-0.0341562 0.0341078 -1 
-0.524975 0.684437 -1 
0.222176 -0.790392 -1 
-0.656912 -0.498445 -1 
-0.613635 -0.255647 -1 
-0.0533047 -0.84251 -1 
-0.524387 -0.0607112 -1 
0.282184 -0.0437824 -1 
0.0439464 0.556708 -1 
0.290483 -0.314481 -1 
-0.141283 0.736349 -1 
-0.836158 0.252884 -1 
0.112462 -0.827947 -1 
0.34086 -0.693306 -1 
0.592482 0.308784 -1 
0.221052 0.580975 -1 
0.282191 -0.75165 -1 
-0.413027 -0.831386 -1 
0.549202 -0.484278 -1 
-0.399757 0.728036 -1 
-0.317088 -0.5124 -1 
0.424171 0.452495 -1 
-0.251566 -0.679029 -1 
0.489113 0.179395 -1 
0.18017 0.963378 -1 
0.498624 -0.613478 -1 
-0.26895 0.00139324 -1 
-0.697854 -0.326519 -1 
-0.166012 0.616064 -1 
-0.345298 -0.0352643 -1 
-0.44242 -0.047916 -1 
0.0449341 0.635567 -1 
-0.898225 0.358484 -1 
0.0657608 -0.661254 -1 
-0.427542 0.819254 -1 
0.400058 -0.021626 -1 
-0.112121 0.902737 -1 
0.314477 -0.747638 -1 
-0.280068 0.613639 -1 
0.0486317 -0.844892 -1 
-0.698116 -0.380493 -1 
-0.658575 0.449544 -1 
0.194412 -0.773163 -1 
-0.35834 0.535514 -1 
0.543838 0.189141 -1 
0.541015 0.518658 -1 
-0.116849 -0.844356 -1 
-0.243886 -0.207528 -1 
-0.735038 0.312654 -1 
-0.739071 0.185164 -1 
-0.370727 -0.054709 -1 
-0.578696 -0.601047 -1 
-0.595163 -0.929098 -1 
-0.74559 -0.168116 -1 
-0.583779 -0.756616 -1 
-0.464584 0.524635 -1 
0.428186 0.181654 -1 
-0.0970256 0.0216866 -1 
0.162264 -0.180293 -1 
0.408888 0.587049 -1 
-0.318022 0.598445 -1 
0.0227969 0.0405966 -1 
-0.197424 -0.00735753 -1 
-0.745572 0.568227 -1 
0.309348 -0.030527 -1 
0.321409 -0.0688707 -1 
-0.74898 0.726864 -1 
-0.861624 0.463356 -1 
-0.395288 0.719907 -1 
-0.880198 0.341278 -1 
0.086029 0.649848 -1 
-0.114993 -0.820717 -1 
-0.730506 0.470816 -1 
0.231835 -0.766864 -1 
-0.822907 0.487149 -1 
-0.442949 -0.772812 -1 
0.165911 0.757158 -1 
0.327973 0.660427 -1 
-0.327029 -0.215586 -1 
-0.557123 0.467181 -1 
-0.474794 0.302159 -1 
-0.172827 -0.814059 -1 
0.562779 -0.559347 -1 
-0.593175 0.630302 -1 
-0.477597 -0.235015 -1 
-0.555439 0.639311 -1 
-0.423265 -0.837883 -1 
-0.198128 0.79832 -1 
-0.971512 -0.656331 -1 
0.438812 0.664729 -1 
0.0899571 0.0215376 -1 
0.0856868 -0.655428 -1 
-0.29752 -0.307494 -1 
-0.801071 -0.528325 -1 
0.372144 0.00165993 -1 
-0.19804 -0.834001 -1 
0.433638 -0.148397 -1 
-0.034424 -0.153405 -1 
0.238606 0.582514 -1 
-0.381276 0.572949 -1 
-0.322477 0.618002 -1 
-0.989281 -0.26767 -1 
0.398891 0.325763 -1 
0.296367 0.724329 -1 
-0.699007 -0.367346 -1 
-0.664497 -0.0977176 -1 
0.510896 0.128218 -1 
0.17561 0.73693 -1 
-0.0945936 -0.0146175 -1 
0.472078 -0.625347 -1 
0.384295 0.00165231 -1 
0.200818 0.591035 -1 
0.315025 0.130375 -1 
-0.247929 0.624134 -1 
-0.734961 0.571071 -1 
0.519188 -0.413118 -1 
0.424778 0.0140393 -1 
0.55688 0.452918 -1 
-0.447743 -0.0357715 -1 
0.564805 0.461165 -1 
-0.0675896 0.464046 -1 
-0.0123176 -0.0069653 -1 
0.180982 0.609741 -1 
-0.363263 -0.662264 -1 
-0.0474905 -0.811575 -1 
-0.562534 0.832879 -1 
-0.182234 -0.0339926 -1 
0.329555 0.111166 -1 
0.187792 0.797391 -1 
0.00629893 -0.146921 -1 
-0.540389 -0.567367 -1 
0.100132 -0.107225 -1 
-0.0383995 -0.646037 -1 
-0.318823 -0.658749 -1 
-0.87781 0.417233 -1 
0.0843504 -0.607989 -1 
0.0512606 -0.134377 -1 
0.154018 0.604314 -1 
0.032561 -0.837018 -1 
-0.261392 -0.675811 -1 
-0.182752 -0.817479 -1 
-0.0905451 0.762061 -1 
-0.280498 -0.838653 -1 
-0.63345 -0.242673 -1 
-0.0778424 -0.841909 -1 
0.295202 0.734434 -1 
-0.191369 -0.666996 -1 
0.384548 0.196163 -1 
0.253715 -0.776701 -1 
0.367491 -0.525684 -1 
-0.408761 0.554497 -1 
0.243039 0.694053 -1 
-0.421254 -0.111698 -1 
-1 0.543111 -1 
0.165344 0.0825173 -1 
0.688522 -0.656763 -1 
-0.893903 0.434459 -1 
0.0174159 -0.041965 -1 
-0.000584759 -0.662357 -1 
0.533192 -0.537307 -1 
-0.193046 0.790904 -1 
-0.626684 -0.251105 -1 
0.357229 0.655756 -1 
-0.651222 0.401262 -1 
-0.259394 0.528047 -1 
-0.831503 0.64629 -1 
-0.323966 0.576603 -1 
-0.0323945 -0.170108 -1 
-0.104554 -0.799782 -1 
0.26958 -0.0820027 -1 
0.337887 0.697987 -1 
-0.259912 0.660988 -1 
0.283607 0.52101 -1 
-0.239468 1 -1 
-0.0562502 0.800931 -1 
-0.225819 -0.184677 -1 
0.281531 0.720564 -1 
0.112756 0.757078 -1 
-0.829085 0.30049 -1 
0.310392 0.549328 -1 
-0.0804632 0.801532 -1 
0.387128 0.647388 -1 
0.604108 0.260083 -1 
-0.206332 0.636145 -1 
-0.820923 -0.584837 -1 
-0.621384 -0.743533 -1 
0.522895 -0.391457 -1 
0.401421 0.651882 -1 
0.222325 -0.824316 -1 
-0.0118473 -0.12382 -1 
-0.85822 -0.512881 -1 
0.396323 -0.473716 -1 
0.259824 0.093502 -1 
0.557374 0.367317 -1 
-0.657105 -0.0435716 -1 
0.441389 -0.0152053 -1 
-0.405262 -0.813206 -1 
-0.792035 -0.732583 -1 
0.0156148 -0.839095 -1 
0.16115 -0.0809162 -1 
0.418859 0.214936 -1 
-0.491911 0.705339 -1 
0.208908 0.598633 -1 
0.263989 0.573458 -1 
0.323481 -0.702552 -1 
-0.391998 0.608667 -1 
-0.519443 -0.860544 -1 
0.478426 -0.587361 -1 
-0.703172 0.363297 -1 
0.374069 0.478972 -1 
0.153201 0.619378 -1 
-0.282451 0.694096 -1 
0.0267802 0.610214 -1 
-0.474283 -0.813353 -1 
0.213692 0.623805 -1 
-0.826575 -0.334824 -1 
0.260112 0.71741 -1 
-0.279368 -0.560912 -1 
0.202318 -0.749934 -1 
0.248864 -0.0721415 -1 
-0.00252555 -0.639437 -1 
0.149238 -0.125114 -1 
-0.251981 0.000453441 -1 
-0.498679 -0.660652 -1 
-0.549022 0.501388 -1 
-0.83823 -0.521298 -1 
0.35018 0.540799 -1 
0.301516 -0.720352 -1 
0.260796 -0.572417 -1 
-0.834344 -0.466923 -1 
-0.706521 -0.343935 -1 
-0.430681 -0.684254 -1 
0.525684 0.566729 -1 
0.14738 -0.786808 -1 
0.337327 0.0437294 -1 
0.0405922 0.792188 -1 
-0.823564 0.267351 -1 
0.280301 -0.0176727 -1 
-0.53707 0.482599 -1 
-0.291043 -0.153857 -1 
-0.208353 -0.833872 -1 
-0.207598 0.609563 -1 
0.0936144 0.634814 -1 
0.116382 -0.673783 -1 
-0.606602 -0.0899507 -1 
-0.346458 -0.82529 -1 
0.563548 0.244618 -1 
-0.471097 -0.18972 -1 
-0.138881 0.775694 -1 
-0.116418 0.642969 -1 
0.551374 -0.412758 -1 
-0.654804 -0.514041 -1 
0.364462 0.454771 -1 
-0.304685 -0.0302968 -1 
0.328207 0.173518 -1 
-0.502626 -0.762582 -1 
-0.650032 0.72869 -1 
-0.500424 -0.899186 -1 
-0.266341 0.745018 -1 
-0.659358 -0.735209 -1 
0.561258 -0.270657 -1 
-0.231773 -0.532827 -1 
-0.464354 0.725671 -1 
-0.261022 -0.0337863 -1 
-0.393844 -0.521373 -1 
-0.640794 -0.559103 -1 
-0.737107 -0.163541 -1 
0.178775 -0.617564 -1 
-0.667884 0.606462 -1 
-0.455736 -0.0439578 -1 
0.166643 -0.0690212 -1 
0.104755 -0.140729 -1 
0.0940397 0.645833 -1 
-0.446201 0.553469 -1 
-0.531446 0.526699 -1 
-0.183896 -0.167046 -1 
0.0853036 -0.813101 -1 
-0.649177 -0.575297 -1 
-0.258243 -0.851366 -1 
0.511642 0.0641622 -1 
-0.75641 -0.632681 -1 
0.16382 0.784511 -1 
0.343202 0.482687 -1 
0.481337 0.0697034 -1 
-0.861195 -0.414889 -1 
0.0643413 -0.311202 -1 
-0.514753 0.667543 -1 
-0.13861 -0.0216953 -1 
-0.0899063 0.609611 -1 
-0.0885015 0.0245544 -1 
0.29317 0.0253956 -1 
-0.577465 -0.584312 -1 
0.586037 0.410043 -1 
-0.159846 -0.654693 -1 
-0.198248 0.764572 -1 
-0.0402373 -0.821567 -1 
-0.632008 0.631334 -1 
0.043173 0.0199772 -1 
-0.528678 0.565627 -1 
0.0256398 -0.828265 -1 
0.514203 -0.601791 -1 
0.547145 -0.447208 -1 
0.00335949 0.655283 -1 
-0.572622 -0.780013 -1 
0.586582 0.192052 -1 
-0.444818 0.576578 -1 
-0.59221 0.46096 -1 
0.0542981 0.011562 -1 
-0.863806 -0.262575 -1 
-0.231803 0.739961 -1 
-0.0236615 -0.672078 -1 
-0.546182 0.500415 -1 
-0.791212 -0.627494 -1 
-0.687147 -0.279757 -1 
0.576778 -0.0191138 -1 
0.302378 -0.905394 -1 
-0.0276211 0.803445 -1 
-0.265726 -0.690097 -1 
-0.652039 -0.545567 -1 
-0.717107 -0.667652 -1 
0.573305 0.519099 -1 
-0.599879 -0.0654038 -1 
0.293459 -0.557967 -1 
0.338789 -0.659162 -1 
-0.456926 -0.630965 -1 
-0.870588 -0.399932 -1 
-0.335125 -0.798488 -1 
0.558818 0.410435 -1 
-0.246354 -0.804144 -1 
-0.804101 -0.567636 -1 
-0.879731 -0.504807 -1 
0.199668 0.108545 -1 
-0.800697 -0.562795 -1 
-0.478453 -0.623154 -1 
-0.681139 0.581783 -1 
-0.697656 0.569994 -1 
0.328048 -0.539798 -1 
-0.476223 -0.819318 -1 
-0.768843 -0.605779 -1 
-0.850511 -0.267686 -1 
0.357426 0.541158 -1 
-0.0858641 -0.697995 -1 
-0.5691 0.631059 -1 
-0.836498 -0.442998 -1 
-0.767416 0.566349 -1 
0.399257 0.213709 -1 
-0.335049 0.722472 -1 
0.42362 0.228422 -1 
0.0634321 0.626496 -1 
-0.627 -0.290336 -1 
0.230099 -0.579382 -1 
0.280432 0.557501 -1 
-0.491917 -0.776005 -1 
0.684018 -0.301834 -1 
-0.822403 0.533337 -1 
-0.757196 0.294924 -1 
-0.464211 -0.0950305 -1 
-0.231201 0.59296 -1 
-0.818444 -0.248621 -1 
0.0528062 0.809071 -1 
0.124715 0.773573 -1 
0.0573131 -0.129643 -1 
-0.0311892 0.900107 -1 
-0.681296 0.423394 -1 
-0.355153 0.531247 -1 
-0.708846 -0.422018 -1 
-0.447185 -0.181181 -1 
-0.744442 -0.177787 -1 
0.366105 0.196197 -1 
-0.847582 0.300569 -1 
0.129709 0.0286556 -1 
-0.477342 -0.0547592 -1 
0.290663 -0.540536 -1 
-0.467282 -0.207771 -1 
0.13901 -0.798304 -1 
0.1648 0.025635 -1 
-0.0371929 0.0407516 -1 
-0.71364 0.3938 -1 
-0.164179 -0.150635 -1 
0.457753 0.0383791 -1 
-0.352691 -0.94952 -1 
0.058979 -0.830466 -1 
-0.72498 -0.0545698 -1 
-0.414267 -0.788946 -1 
0.444954 0.276914 -1 
-0.87104 0.270167 -1 
-0.701509 -0.436357 -1 
0.633046 0.721618 -1 
-0.556958 -0.20855 -1 
-0.356536 0.603912 -1 
0.393317 0.367858 -1 
-0.230939 -0.179467 -1 
-0.069076 0.613777 -1 
-0.303263 -0.699583 -1 
-0.676777 -0.508614 -1 
-0.663255 -0.746045 -1 
-0.809638 -0.209879 -1 
0.388874 0.500434 -1 
0.525848 -0.482733 -1 
0.395974 -0.44932 -1 
-0.624292 -0.0949782 -1 
0.178247 0.903555 -1 
-0.420012 -0.344502 -1 
-0.273027 0.772721 -1 
0.120252 0.0238249 -1 
-0.327612 -0.903313 -1 
-0.807282 0.498592 -1 
0.180552 -0.651082 -1 
-0.268088 0.590005 -1 
0.00844003 0.757661 -1 
-0.291465 0.614436 -1 
-0.314475 0.596871 -1 
0.519985 -0.564301 -1 
-0.134538 -0.80354 -1 
0.577352 0.486702 -1 
-0.378603 -0.049544 -1 
0.334016 -0.0154191 -1 
0.533385 0.109505 -1 
-0.617807 -0.607508 -1 
0.543398 0.0554215 -1 
-0.347172 0.75246 -1 
0.372319 0.681627 -1 
0.552709 0.182421 -1 
-0.696452 -0.332189 -1 
-0.707952 0.386916 -1 
-0.770291 -0.224914 -1 
-0.140801 -0.796256 -1 
0.124748 -0.775686 -1 
-0.793534 -0.716469 -1 
-0.700536 -0.667604 -1 
0.557607 0.255816 -1 
0.122901 -0.787656 -1 
0.600959 0.312948 -1 
-0.566892 -0.781733 -1 
0.34654 0.146723 -1 
-0.54181 -0.197548 -1 
-0.564786 -0.775363 -1 
0.338305 -0.590894 -1 
-0.69023 -0.661997 -1 
-0.112396 0.102734 -1 
0.245277 0.0839192 -1 
0.219441 0.095948 -1 
0.572131 0.428986 -1 
-0.254909 -0.160899 -1 
-0.755164 0.324359 -1 
-0.0937993 -0.651142 -1 
0.216291 0.059675 -1 
0.444219 0.650007 -1 
-0.0335517 0.0326257 -1 
-0.344462 -0.179552 -1 
0.500562 0.572752 -1 
-0.058538 0.739704 -1 
-0.041824 0.5889 -1 
0.0505049 -0.14526 -1 
-0.119529 -0.175417 -1 
-0.717634 0.364038 -1 
-0.780546 -0.478445 -1 
-0.0218309 0.795695 -1 
-0.387099 -0.253022 -1 
0.0658234 0.77629 -1 
0.336047 -0.591505 -1 
0.216416 -0.58324 -1 
0.0629335 -0.14833 -1 
0.00764981 0.435689 -1 
-0.0646794 -0.789325 -1 
-0.875046 0.467732 -1 
-0.307757 -0.808769 -1 
0.477747 0.0765587 -1 
-0.0296026 0.777296 -1 
-0.238994 0.608622 -1 
-0.370111 -0.671283 -1 
0.393036 0.332324 -1 
-0.551979 -0.646066 -1 
-0.710679 -0.143883 -1 
-0.305181 -0.0196833 -1 
-0.497791 -0.650534 -1 
0.00236719 -0.134688 -1 
0.399772 0.324002 -1 
0.381256 0.401237 -1 
-0.402689 -0.770564 -1 
0.455888 0.0497861 -1 
-0.0694345 -0.141552 -1 
-0.963132 0.320503 -1 
-0.26679 -0.919099 -1 
-0.737415 -0.619371 -1 
-0.0920604 0.643785 -1 
-0.152442 -0.847823 -1 
0.165359 -0.145515 -1 
0.237161 -0.0610933 -1 
-0.373426 -0.226552 -1 
0.274037 -0.633253 -1 
0.402977 0.466559 -1 
0.0506867 -0.349559 -1 
-0.792889 -0.467847 -1 
-0.846869 -0.330696 -1 
0.327889 0.142226 -1 
-0.332938 -0.19287 -1 
-0.898215 0.331228 -1 
0.2046 -0.089925 -1 
0.395589 -0.712623 -1 
-0.319559 -0.655625 -1 
0.587252 0.313653 -1 
-0.14304 0.609167 -1 
-0.544667 0.290217 -1 
-0.768581 0.537583 -1 
-0.669795 0.65773 -1 
0.143548 -0.782091 -1 
-0.543813 -0.0766663 -1 
-0.285965 -1 -1 
-0.0693077 0.779463 -1 
-0.516728 -0.785683 -1 
-0.624398 0.417041 -1 
-0.242081 0.755508 -1 
0.717014 0.54725 -1 
-0.140835 0.635325 -1 
0.401074 0.173508 -1 
0.318363 -0.590258 -1 
-0.402156 -0.741807 -1 
-0.442814 0.538038 -1 
0.332717 -0.00532513 -1 
0.40861 -0.480336 -1 
0.395014 -0.662952 -1 
-0.265921 -0.870974 -1 
-0.532855 0.469749 -1 
-0.767265 0.307491 -1 
0.433913 -0.646778 -1 
-0.626009 0.428254 -1 
-0.117417 -0.17017 -1 
-0.597647 -0.219213 -1 
0.438308 0.607687 -1 
0.113666 0.647176 -1 
0.124938 -0.64793 -1 
0.192592 -0.585194 -1 
-0.640288 -0.121903 -1 
-0.267886 -0.806701 -1 
-0.0167771 -0.303707 -1 
-0.39727 -0.0508667 -1 
0.278476 0.123026 -1 
-0.904015 0.408202 -1 
-0.281427 -0.201209 -1 
0.3126 -0.733006 -1 
0.577329 0.189921 -1 
-0.149453 -0.931453 -1 
0.464861 -0.414446 -1 
0.336111 -0.567055 -1 
-0.395863 0.764275 -1 
-0.0167522 -0.796581 -1 
-0.74882 -0.455093 -1 
-0.851844 -0.0637134 -1 
-0.308725 0.624107 -1 
-0.17138 -0.674413 -1 
0.601724 0.351453 -1 
0.455537 -0.60791 -1 
0.457705 -0.64954 -1 
-0.880382 0.442127 -1 
0.455289 -0.434774 -1 
0.00584315 0.0291258 -1 
0.482693 0.611673 -1 
-0.666537 0.59619 -1 
0.148017 0.0324694 -1 
-0.776422 -0.194517 -1 
0.0213584 0.4585 -1 
-0.152759 0.813816 -1 
-0.131354 -0.151466 -1 
-0.843385 -0.30133 -1 
-0.0138695 0.613187 -1 
0.503903 0.596512 -1 
-0.306459 0.751141 -1 
0.275117 -0.768532 -1 
-0.252294 -0.84685 -1 
-0.68792 0.621927 -1 
0.17017 -0.666711 -1 
-0.783911 -0.211029 -1 
-0.907979 0.283478 -1 
