ply
format ascii 1.0
comment VCGLIB generated
element vertex 579
property float x
property float y
property float z
element face 0
property list uchar int vertex_indices
end_header
0.367397 -0.615914 -1 
0.415781 -0.681932 -1 
0.391531 -0.736164 -1 
0.529552 -0.784664 -1 
0.56842 -0.155929 -1 
0.0344158 0.0705746 -1 
-0.888266 -0.248035 -1 
0.824994 -0.21419 -1 
0.188952 -0.162817 -1 
0.423447 -0.921364 -1 
0.385279 -0.684281 -1 
-0.335939 0.591858 -1 
0.523935 -0.490304 -1 
0.91454 -0.526277 -1 
0.459534 -0.702145 -1 
0.85934 0.0944485 -1 
0.0743872 0.287168 -1 
-0.339525 -0.305002 -1 
0.281971 -0.195521 -1 
-0.687261 -0.141587 -1 
0.491444 -0.172204 -1 
0.736749 -0.516524 -1 
0.852543 0.0189234 -1 
0.356614 -1.00206 -1 
0.36771 -0.531661 -1 
0.905773 0.0828305 -1 
-0.610606 -0.595479 -1 
-0.0436382 0.46743 -1 
0.927879 -0.307645 -1 
0.765062 -0.697424 -1 
-0.90683 -0.0872383 -1 
-0.590486 -0.166119 -1 
0.288872 -0.445916 -1 
-0.217097 -0.477132 -1 
0.0323046 0.258503 -1 
-0.308601 -0.470161 -1 
-0.963408 -0.147634 -1 
-0.199008 -0.413636 -1 
0.733748 -0.583878 -1 
-0.175253 0.736664 -1 
-0.545632 -0.16575 -1 
-0.912927 -0.427298 -1 
-0.168963 -0.298177 -1 
-0.421238 -0.190868 -1 
-0.752414 -0.1488 -1 
0.601625 -0.103082 -1 
-0.457083 -0.405789 -1 
0.791761 -0.546638 -1 
0.338258 -0.143113 -1 
-0.716489 -0.387964 -1 
0.806909 -0.618207 -1 
0.688777 -0.0815925 -1 
0.310293 -0.636627 -1 
-0.79479 -0.535983 -1 
0.526482 -0.60582 -1 
0.898521 -0.35296 -1 
-0.939703 -0.200537 -1 
0.0990209 -0.107117 -1 
-0.996067 -0.0696378 -1 
-0.056993 0.360692 -1 
0.715022 -0.362364 -1 
-0.868225 -0.472289 -1 
-0.573605 -0.222307 -1 
0.631655 -0.659415 -1 
-0.794895 -0.143341 -1 
-0.0108905 0.312197 -1 
-0.85186 -0.140226 -1 
-0.642925 -0.601056 -1 
0.872427 -0.261649 -1 
-0.492097 -0.202519 -1 
0.514098 -0.436971 -1 
0.598759 -0.20388 -1 
0.299474 -0.470121 -1 
-0.415364 -0.489801 -1 
0.536068 -0.561869 -1 
-0.499407 -0.621803 -1 
-0.452724 -0.275584 -1 
0.301911 -0.146799 -1 
0.388551 -0.208629 -1 
0.141735 -0.164206 -1 
0.358066 -0.97248 -1 
0.320811 -0.468033 -1 
-0.917334 -0.492444 -0.999966 
-0.262864 -0.390172 -1 
-0.37609 -0.613889 -1 
0.884034 -0.119922 -1 
-0.614966 -0.517711 -1 
0.541101 -0.259179 -1 
0.739228 -0.0127527 -1 
-0.8344 -0.396548 -1 
-0.536074 -0.669119 -1 
0.840373 -0.186743 -1 
-0.412523 -0.455118 -1 
-0.972336 -0.407417 -1 
0.406155 -0.314212 -1 
-0.108861 -0.15003 -1 
0.589501 -0.406306 -1 
-0.250037 0.583059 -1 
-0.0425237 -0.228525 -1 
-0.814616 -0.623438 -1 
-0.737909 -0.245819 -1 
0.85788 -0.347461 -1 
0.349317 -0.691842 -1 
-0.125145 -0.208149 -1 
0.416873 -0.33881 -1 
0.25263 -0.276468 -1 
0.906329 0.0254306 -1 
0.338267 -0.880286 -1 
-0.974106 0.0313203 -1 
-0.684821 -0.143824 -1 
-0.713219 -0.341858 -1 
-0.198533 -0.3621 -1 
-0.262253 0.569578 -1 
-0.0905907 -0.274976 -1 
0.661204 -0.742178 -1 
-0.567679 -0.182503 -1 
0.314747 -0.430753 -1 
0.269733 -0.564935 -1 
0.356019 -0.315788 -1 
-0.082359 0.571888 -1 
-0.857069 -0.565088 -1 
-0.62457 -0.485249 -1 
0.949152 -0.22977 -1 
0.0661624 -0.0806009 -1 
-0.406846 -0.563473 -1 
0.180683 -0.131782 -1 
-0.241364 -0.39083 -1 
-0.520806 0.653312 -1 
0.976868 0.0943802 -1 
-0.960589 -0.194605 -1 
-0.484581 -0.335227 -1 
-0.407551 0.729479 -1 
0.580251 -0.288305 -1 
-0.881886 -0.330836 -1 
0.883447 -0.273756 -1 
0.321528 -0.470789 -1 
0.44464 -0.169674 -1 
-0.0234849 -0.158441 -1 
0.588464 -0.656426 -1 
0.0138437 0.0965631 -1 
-0.266963 -0.226471 -1 
0.788432 0.0162319 -1 
0.3686 -0.810991 -1 
-0.886221 -0.00847729 -1 
-0.00992588 -0.0793951 -1 
-0.939434 -0.214795 -1 
-0.56512 -0.672454 -1 
0.0322398 -0.0268194 -1 
0.609033 -0.548851 -1 
-0.352802 -0.511784 -1 
-0.243118 -0.508278 -1 
0.737659 -0.386478 -1 
0.768182 -0.44157 -1 
-0.940202 -0.0484759 -1 
0.0321443 -0.109133 -1 
-0.0293754 0.274583 -1 
0.710145 -0.618856 -1 
-0.4921 -0.51366 -1 
-0.217018 0.827338 -1 
-0.697936 -0.160382 -1 
0.461993 -0.713745 -1 
0.46739 -0.503842 -1 
-0.19808 0.694861 -1 
-0.829373 -0.531864 -1 
0.0765394 -0.151475 -1 
-0.359779 -0.232277 -1 
0.61184 -0.627327 -1 
-0.885162 -0.304378 -1 
0.403742 -0.423186 -1 
0.500827 -0.829485 -1 
-0.476452 -0.507085 -1 
-0.0567225 0.360105 -1 
0.749717 0.0259709 -1 
-0.267284 -0.333328 -1 
-0.381124 -0.33196 -1 
-0.47836 -0.435204 -1 
-0.78685 -0.090967 -1 
-0.744263 -0.118159 -1 
-0.372214 -0.286766 -1 
0.698015 -0.323771 -1 
-0.931952 0.0115438 -1 
0.404713 -0.658783 -1 
-0.658834 -0.155921 -1 
-0.383067 -0.455446 -1 
0.399342 -0.495941 -1 
0.82719 -0.340423 -1 
0.461513 -0.392814 -1 
-0.826247 -0.0186757 -1 
0.808101 -0.650534 -1 
0.0032863 0.418271 -1 
0.643837 -0.801168 -1 
-0.407045 0.633294 -1 
0.546227 -0.879057 -1 
0.0669614 0.162402 -1 
0.362299 -0.231717 -1 
-0.0587406 -0.198873 -1 
0.668396 -0.186411 -1 
0.962028 -0.0249728 -1 
0.299969 -0.235119 -1 
0.793042 -0.366063 -1 
0.464385 -0.337638 -1 
-0.753481 -0.419308 -1 
0.283831 -0.403926 -1 
-0.672954 -0.382163 -1 
0.542592 -0.710037 -1 
0.904302 -0.365938 -1 
0.236898 -0.371629 -1 
0.641876 -0.108324 -1 
0.0775716 -0.101103 -1 
-0.401213 -0.360908 -1 
-0.22554 0.635029 -1 
-0.16545 -0.242962 -1 
-0.122175 -0.292844 -1 
-0.617557 -0.466094 -1 
0.0115256 0.19237 -1 
0.290126 -0.785723 -1 
0.367544 -0.790774 -1 
0.283762 -0.854861 -1 
-0.887002 -0.496372 -1 
-0.165271 0.667624 -1 
0.863047 -0.422103 -1 
0.0705887 -0.0717357 -1 
-0.839406 -0.105718 -1 
-0.941535 -0.313257 -1 
0.803481 -0.296261 -1 
-0.722877 -0.646909 -1 
-0.576763 -0.288902 -1 
0.0353004 0.0775999 -1 
0.436233 -0.873568 -1 
0.155194 -0.215913 -1 
0.791818 -0.428296 -1 
-0.95843 -0.157472 -1 
-0.37479 0.578928 -1 
-0.16972 -0.375036 -1 
0.683896 -0.483789 -1 
-0.0950181 -0.144866 -1 
0.015887 0.456875 -1 
0.985997 -0.158899 -1 
-0.574918 -0.468707 -1 
0.2149 -0.240263 -1 
-0.223544 -0.192292 -1 
0.851558 -0.00233515 -1 
0.0583051 0.190028 -1 
0.912566 -0.00119974 -1 
0.611951 -0.362258 -1 
0.646017 -0.322734 -1 
0.505779 -0.48316 -1 
-0.213112 -0.196758 -1 
0.683615 -0.264279 -1 
-0.435772 -0.515126 -1 
0.217439 -0.329214 -1 
0.183417 -0.127444 -1 
-0.970684 -0.334027 -1 
-0.28968 -0.275465 -1 
0.00399218 -0.0294561 -1 
-0.774255 -0.560558 -1 
0.139394 -0.208429 -1 
-0.60751 -0.149396 -1 
-0.372964 -0.594943 -1 
-0.729701 -0.535953 -1 
-0.219858 -0.469306 -1 
0.479037 -0.231381 -1 
-0.724359 -0.116832 -1 
0.954155 -0.229896 -1 
0.0229592 0.252837 -1 
-1.01979 -0.240303 -1 
0.71219 -0.746192 -1 
0.648687 -0.0609416 -1 
-0.316151 0.716042 -1 
-1.00112 -0.267319 -1 
0.43229 -0.256487 -1 
0.525209 -0.620338 -1 
0.215854 -0.209682 -1 
0.0625276 -0.154984 -1 
-0.429943 0.675102 -1 
0.447741 -0.471694 -1 
0.560694 -0.219253 -1 
0.702323 -0.709947 -1 
-0.793437 -0.24556 -1 
-0.953881 -0.130066 -1 
-0.350445 -0.63187 -1 
-0.593469 -0.478076 -1 
0.00945792 -0.145462 -1 
-0.628066 -0.277806 -1 
-0.261111 -0.296154 -1 
-0.685809 -0.472711 -1 
0.604015 -0.308345 -1 
-0.516416 -0.683312 -1 
-0.144049 -0.343592 -1 
-0.0545325 0.426392 -1 
-0.906722 -0.348467 -1 
0.926606 -0.104556 -1 
-0.338338 0.653276 -1 
-0.00463914 0.202633 -1 
-0.782567 -0.266641 -1 
-0.201651 0.559175 -1 
-0.461207 -0.584777 -1 
0.557006 -0.326669 -1 
0.564255 -0.773474 -1 
-0.145582 0.720745 -1 
0.390187 -0.824922 -1 
-0.471469 -0.367346 -1 
0.569281 -0.872018 -1 
-0.18645 -0.273169 -1 
-0.223805 0.76924 -1 
0.975411 0.0210296 -1 
0.823321 -0.546373 -1 
-0.314693 -0.313179 -1 
-0.42906 0.610233 -1 
-0.189554 -0.370553 -1 
0.886325 -0.0780453 -1 
0.0100985 0.129346 -1 
-0.0654313 -0.201154 -1 
-0.226119 0.717259 -1 
0.529063 -0.343461 -1 
-0.516031 -0.287445 -1 
0.327422 -0.163784 -1 
-0.470114 -0.389804 -1 
0.298866 -0.489818 -1 
-0.754419 -0.539574 -1 
0.911589 -0.179756 -1 
0.69444 -0.776305 -1 
0.589639 -0.867618 -1 
0.757304 -0.142433 -1 
0.078083 0.0224428 -1 
0.110527 -0.0426636 -1 
-0.575233 -0.223203 -1 
0.0250819 0.0301265 -1 
0.741326 -0.29242 -1 
0.119628 -0.0642711 -1 
0.718622 -0.461167 -1 
-0.763271 -0.384464 -1 
0.558429 -0.903612 -1 
0.74264 -0.201244 -1 
-0.305588 0.751429 -1 
0.271461 -0.727604 -1 
0.82263 -0.147483 -1 
-0.825276 -0.0908648 -1 
0.890659 -0.556786 -1 
0.318149 -0.172239 -1 
-0.838053 -0.429827 -1 
0.0636933 0.0445653 -1 
-0.422647 0.728861 -1 
-0.184801 0.699775 -1 
0.408165 -0.986806 -1 
0.475504 -0.811972 -1 
-0.163829 -0.151204 -1 
-0.766096 -0.662313 -1 
0.73618 -0.53884 -1 
0.793856 -0.670856 -1 
-0.186797 -0.346142 -1 
0.697709 -0.574981 -1 
0.981222 0.089605 -1 
0.934907 -0.251331 -1 
-0.467406 -0.66491 -1 
0.022605 0.330027 -1 
-0.896434 -0.214781 -1 
0.710728 -0.0496694 -1 
-0.294143 -0.162631 -1 
-0.64903 -0.668563 -1 
0.578183 -0.583924 -1 
-0.299774 -0.391232 -1 
-0.0102418 0.253575 -1 
0.504888 -0.711596 -1 
-0.497139 0.628626 -1 
0.708375 -0.684619 -1 
0.278067 -0.26255 -1 
-0.00377812 0.259751 -1 
0.622392 -0.384858 -1 
-0.971494 0.0128936 -1 
0.304139 -0.674943 -1 
-0.300816 0.798127 -1 
0.414743 -0.739001 -1 
-0.0496338 0.44527 -1 
0.950577 -0.038332 -1 
-0.0523351 -0.0977773 -1 
-0.491308 0.668579 -1 
0.0710448 0.145721 -1 
0.0501873 0.0163916 -1 
0.259528 -0.354898 -1 
-0.530881 -0.317433 -1 
0.391403 -0.554379 -1 
-0.267735 0.753067 -1 
-0.245401 -0.27345 -1 
0.263359 -0.119385 -1 
0.0581189 0.194449 -1 
-0.699428 -0.21548 -1 
-0.58804 -0.710518 -1 
-0.480264 -0.554161 -1 
0.70814 -0.198303 -1 
0.331471 -0.987937 -1 
-0.321514 -0.437805 -1 
0.561859 -0.0900331 -1 
0.50752 -0.942974 -1 
-0.665722 -0.513555 -1 
0.660174 -0.399528 -1 
-0.764679 -0.474338 -1 
-0.624197 -0.353773 -1 
0.00340184 0.469379 -1 
0.417394 -0.643166 -1 
0.437125 -0.551767 -1 
0.624562 -0.74288 -1 
0.745594 -0.598054 -1 
-0.32638 -0.53525 -1 
-0.637282 -0.552626 -1 
0.616118 -0.501166 -1 
0.954336 -0.107892 -1 
-0.46749 -0.23772 -1 
0.410059 -0.956154 -1 
0.174648 -0.233403 -1 
0.777351 -0.300736 -1 
0.880061 -0.51573 -1 
0.454656 -0.613379 -1 
0.319404 -0.908537 -1 
-0.147124 0.633674 -1 
0.0973828 -0.196665 -1 
-0.0780742 0.532153 -1 
0.809442 -0.495303 -1 
0.0799621 0.0113152 -1 
-0.806322 -0.496611 -1 
0.230682 -0.306729 -1 
-0.115903 0.690262 -1 
-0.0165401 0.376529 -1 
0.923928 -0.412995 -1 
-0.0879047 -0.242772 -1 
0.762027 -0.0987703 -1 
-0.498143 -0.314089 -1 
-0.355052 -0.415632 -1 
-0.726207 -0.615972 -1 
-0.558975 -0.363294 -1 
-0.890391 -0.420963 -1 
-0.554149 -0.568742 -1 
-0.150904 0.590956 -1 
0.0388945 0.378273 -1 
-0.0350167 0.532438 -1 
-0.0115544 0.507858 -1 
-0.0902993 0.626591 -1 
-0.043681 0.580038 -1 
-0.149208 0.498332 -1 
-0.148166 0.566003 -1 
-0.0828741 0.437431 -1 
-0.122645 0.513302 -1 
-0.0872535 -0.268068 -1 
-0.163021 -0.376095 -1 
0.332643 -0.745584 -1 
-0.853746 -0.394169 -1 
-0.0128969 -0.177053 -1 
-0.905206 -0.264423 -1 
0.53968 -0.238721 -1 
-0.935298 0.0592305 -1 
-0.447407 -0.24308 -1 
0.976965 -0.199344 -1 
0.681826 -0.824878 -1 
-0.0511292 0.289537 -1 
0.46263 -1.01779 -1 
0.516645 -0.892142 -1 
-0.119113 0.502835 -1 
0.459202 -0.474538 -1 
0.0955746 -0.157539 -1 
-0.528026 -0.759079 -1 
-0.77546 -0.183996 -1 
0.733002 -0.636004 -1 
-0.0602828 0.502996 -1 
-0.191341 0.551102 -1 
-0.560488 -0.715762 -1 
-0.20559 -0.176741 -1 
0.275125 -0.374276 -1 
0.261891 -0.197518 -1 
-0.134576 -0.245471 -1 
0.267052 -0.0746474 -1 
0.0150895 0.08531 -1 
0.395068 -0.560761 -1 
-0.1843 -0.308972 -1 
-1.05729 -0.147266 -1 
-0.00213732 -0.0139398 -1 
-0.847536 -0.672508 -1 
-0.440971 0.691065 -1 
-0.945593 -0.384111 -0.999966 
0.683574 -0.644149 -1 
0.319704 -0.341635 -1 
0.453376 -0.747011 -1 
-0.351497 0.533889 -1 
0.317268 -0.703326 -1 
0.718158 -0.0932269 -1 
0.827292 -0.170573 -1 
-0.754532 -0.302506 -1 
0.782158 -0.328403 -1 
-0.589619 -0.443027 -1 
-0.229911 0.635205 -1 
-0.427267 -0.293388 -1 
0.381878 -0.708659 -1 
-0.570563 -0.483767 -1 
-0.996023 -0.528646 -1 
-0.371593 -0.325416 -1 
0.460149 -0.325067 -1 
0.408364 -1.00669 -1 
-0.0907954 0.590935 -1 
0.161443 -0.107167 -1 
0.295047 -0.429742 -1 
0.483435 -0.350201 -1 
-0.10008 -0.283522 -1 
0.887587 -0.430856 -1 
-0.846409 -0.511571 -1 
-0.115341 -0.425479 -1 
0.29583 -0.884791 -1 
0.415492 -0.322703 -1 
-0.928032 -0.200179 -1 
-0.875895 -0.599886 -1 
-0.44192 -0.456661 -1 
-0.291682 0.757013 -1 
0.306782 -0.425498 -1 
-0.934118 -0.572609 -1 
0.857039 0.127284 -1 
-0.813292 -0.0868514 -1 
-0.71698 -0.267446 -1 
-0.121745 0.640615 -1 
0.905652 -0.471357 -1 
0.0539468 0.244019 -1 
-0.227111 0.780357 -1 
0.336204 -0.846188 -1 
-0.853484 -0.440725 -1 
0.390275 -0.28035 -1 
-0.654641 -0.337745 -1 
-0.455305 -0.17459 -1 
-0.0645677 -0.230025 -1 
0.895284 -0.126666 -1 
0.764707 -0.55037 -1 
0.208615 -0.18457 -1 
0.463721 -0.214741 -1 
0.354667 -0.748864 -1 
0.765174 -0.11287 -1 
-0.132117 -0.230212 -1 
-0.891485 -0.289296 -1 
0.717021 -0.463189 -1 
0.600879 -0.664092 -1 
0.00965305 -0.151225 -1 
0.783638 -0.474472 -1 
0.618643 -0.754328 -1 
0.559679 -0.0838585 -1 
-0.82502 -0.317475 -1 
0.246944 -0.93413 -1 
-0.655042 -0.499175 -1 
0.436966 -0.430061 -1 
0.303184 -0.313739 -1 
-0.08384 0.367725 -1 
0.826033 -0.0840811 -1 
0.414185 -0.521318 -1 
-0.0745838 0.572999 -1 
0.397165 -0.70929 -1 
-0.145718 0.651621 -1 
-0.387075 0.719502 -1 
-0.462584 -0.369161 -1 
-0.205159 0.616815 -1 
0.265317 -0.778037 -1 
0.470071 -0.761005 -1 
0.657119 -0.718617 -1 
-0.153401 -0.310608 -1 
-0.239213 0.527536 -1 
-0.323787 -0.327821 -1 
0.624322 -0.878225 -1 
-0.274318 -0.376215 -1 
0.500319 -0.42591 -1 
-0.245615 0.837423 -1 
0.893065 -0.0326803 -1 
0.524346 -0.99269 -1 
0.970503 -0.404786 -1 
-0.551091 -0.20517 -1 
-0.097481 -0.405837 -1 
0.932429 -0.39185 -1 
0.568929 -0.91935 -1 
-0.437942 -0.132708 -1 
0.521811 -0.700383 -1 
0.227038 -0.680062 -1 
-0.219074 -0.356561 -1 
1.00412 -0.301591 -1 
-0.217018 0.827338 -1 
-0.300816 0.798127 -1 
-0.448928 0.799162 -1 
-0.159416 0.808867 -1 
